# xmcd CD database file
#
# Track frame offsets:
#	150
#	21737
#	40982
#	59300
#	72695
#	86692
#	108767
#	132040
#	147852
#	166742
#
# Disc length: 2425 seconds
#
# Revision: 2
# Processed by: cddbd v1.5PL3 Copyright (c) Steve Scherf et al.
# Submitted via: CDex 1.50beta9
#
DISCID=8b09770a
DTITLE=TSUNEMATSU MATSUI - よろこびのうた featuring Anneli Marian Drecker
DYEAR=1988
DGENRE=Rock
TTITLE0=In the maze
TTITLE1=Any of the many
TTITLE2=All lined up
TTITLE3=The doors
TTITLE4=Yorokobi no uta
TTITLE5=On the hop
TTITLE6=Silvery white goddess
TTITLE7=Mother
TTITLE8=Crossing point
TTITLE9=Halbzeit
EXTD=YEAR: 1988
EXTT0=
EXTT1=
EXTT2=
EXTT3=
EXTT4=
EXTT5=
EXTT6=
EXTT7=
EXTT8=
EXTT9=
PLAYORDER=
